<?xml version="1.0" encoding="UTF-8" standalone="no"?>
<svg width="444px" height="368px" viewBox="0 0 444 368" version="1.1" xmlns="http://www.w3.org/2000/svg" xmlns:xlink="http://www.w3.org/1999/xlink" xmlns:sketch="http://www.bohemiancoding.com/sketch/ns">
    <!-- Generator: Sketch 3.3.3 (12072) - http://www.bohemiancoding.com/sketch -->
    <title>Group</title>
    <desc>Created with Sketch.</desc>
    <defs></defs>
    <g id="Page-1" stroke="none" stroke-width="1" fill="none" fill-rule="evenodd" sketch:type="MSPage">
        <g id="Desktop" sketch:type="MSArtboardGroup" transform="translate(-291.000000, -227.000000)">
            <g id="Group" sketch:type="MSLayerGroup" transform="translate(300.000000, 236.000000)">
                <path d="M425.858753,217.504532 L212.974492,349.406057 L0.0902310437,217.504532 L212.974492,85.6030067 L425.858753,217.504532 Z" id="Rectangle-6-Copy-4" fill="#FFF468" sketch:type="MSShapeGroup"></path>
                <path d="M425.858753,189.455109 L212.974492,321.356634 L0.0902310437,189.455109 L212.974492,57.5535835 L425.858753,189.455109 Z" id="Rectangle-6-Copy-5" fill="#50E387" sketch:type="MSShapeGroup"></path>
                <path d="M425.858753,161.405685 L212.974492,293.30721 L0.0902310437,161.405685 L212.974492,29.5041604 L425.858753,161.405685 Z" id="Rectangle-6-Copy-6" fill="#F263B2" sketch:type="MSShapeGroup"></path>
                <path d="M425.858753,132.457961 L212.974492,264.359486 L0.0902310437,132.457961 L212.974492,0.556436093 L425.858753,132.457961 Z" id="Rectangle-6-Copy-7" fill="#5F34AF" sketch:type="MSShapeGroup"></path>
                <path d="M23.4505177,146.931823 L0.0902310437,161.405685 L22.7256051,175.430397 L0.0902310437,189.455109 L22.7256051,203.47982 L22.7256051,203.47982 L0.0902310437,217.504532 L212.974492,349.406057 L425.858753,217.504532 L403.223379,203.47982 L425.858753,189.455109 L403.223379,175.430397 L403.223379,175.430397 L425.858753,161.405685 L402.498466,146.931823 L425.858753,132.457961 L212.974492,0.556436093 L0.0902310437,132.457961 L23.4505177,146.931823 Z" id="Rectangle-6-Copy-11" stroke="#FFFFFF" stroke-width="9" stroke-linecap="round" stroke-linejoin="round" sketch:type="MSShapeGroup"></path>
                <path d="M117.443229,141.601818 C117.443229,143.951593 116.986916,146.053304 116.074278,147.907016 C115.161639,149.760727 113.949151,151.32722 112.436779,152.606541 C110.924406,153.885863 109.138269,154.851867 107.078313,155.504582 C105.018357,156.157297 102.86717,156.48365 100.624686,156.48365 C97.1827348,156.48365 94.0406975,155.870107 91.19848,154.643002 C88.3562625,153.415898 85.9964751,151.758026 84.119047,149.669338 L85.4488852,148.494456 C87.4306149,150.635362 89.7382523,152.241017 92.3718666,153.31147 C95.005481,154.381923 97.7303184,154.917141 100.546461,154.917141 C102.580341,154.917141 104.509891,154.616897 106.335168,154.016399 C108.160445,153.415901 109.777095,152.55433 111.185166,151.43166 C112.593237,150.30899 113.701425,148.925254 114.509762,147.280412 C115.318099,145.63557 115.722262,143.742724 115.722262,141.601818 C115.722262,139.460913 115.278987,137.659446 114.392423,136.197364 C113.50586,134.735282 112.35856,133.482088 110.950489,132.437743 C109.542418,131.393399 107.938806,130.518774 106.139604,129.813841 C104.340402,129.108909 102.528189,128.469258 100.702912,127.894868 C98.4082778,127.163827 96.3092404,126.393635 94.4057369,125.584268 C92.5022334,124.774901 90.8595085,123.782789 89.4775128,122.607902 C88.0955172,121.433015 87.0264422,120.023171 86.2702559,118.378329 C85.5140696,116.733486 85.1359821,114.736208 85.1359821,112.386433 C85.1359821,110.088876 85.5922946,108.039381 86.5049332,106.237887 C87.4175719,104.436393 88.6561343,102.922117 90.2206577,101.695012 C91.7851811,100.467908 93.5973935,99.528012 95.6573493,98.8752968 C97.7173051,98.2225816 99.8945675,97.8962289 102.189202,97.8962289 C105.005344,97.8962289 107.678031,98.4314474 110.207344,99.5019002 C112.736657,100.572353 114.809619,102.099684 116.426294,104.083938 L115.096455,105.258819 C113.636233,103.431217 111.771871,102.008319 109.503312,100.990083 C107.234753,99.9718477 104.770666,99.4627375 102.110976,99.4627375 C100.233548,99.4627375 98.3952606,99.7238197 96.5960587,100.245992 C94.7968568,100.768164 93.1671694,101.564465 91.7069475,102.634917 C90.2467257,103.70537 89.0733507,105.049943 88.1867875,106.668677 C87.3002242,108.287411 86.8569493,110.19331 86.8569493,112.386433 C86.8569493,114.527339 87.2480742,116.34186 88.0303359,117.830051 C88.8125976,119.318241 89.8555976,120.58449 91.1593671,121.628834 C92.4631366,122.673178 93.936374,123.534749 95.5791236,124.213573 C97.2218731,124.892397 98.9037106,125.518994 100.624686,126.093383 C102.971471,126.876642 105.161771,127.672942 107.195652,128.482309 C109.229532,129.291676 111.01567,130.270734 112.554118,131.419513 C114.092566,132.568291 115.292015,133.965081 116.152503,135.609923 C117.012991,137.254765 117.443229,139.252044 117.443229,141.601818 L117.443229,141.601818 Z M149.780092,101.029246 L149.780092,154.917141 L148.059125,154.917141 L148.059125,101.029246 L129.206712,101.029246 L129.206712,99.4627375 L168.632504,99.4627375 L168.632504,101.029246 L149.780092,101.029246 Z M220.134683,154.917141 L213.563718,139.017079 L181.412923,139.017079 L174.60728,154.917141 L172.729861,154.917141 L196.745175,99.4627375 L198.935497,99.4627375 L222.012102,154.917141 L220.134683,154.917141 Z M197.76211,100.559294 L182.038729,137.528896 L213.016137,137.528896 L197.76211,100.559294 Z M239.407841,101.029246 L239.407841,125.388455 L267.177992,125.388455 L267.177992,126.954963 L239.407841,126.954963 L239.407841,154.917141 L237.686874,154.917141 L237.686874,99.4627375 L269.290088,99.4627375 L269.290088,101.029246 L239.407841,101.029246 Z M287.468085,154.917141 L287.468085,99.4627375 L289.189053,99.4627375 L289.189053,153.350633 L316.724527,153.350633 L316.724527,154.917141 L287.468085,154.917141 Z M332.399299,154.917141 L332.399299,99.4627375 L334.120266,99.4627375 L334.120266,154.917141 L332.399299,154.917141 Z" id="STAFLI-Copy-2" stroke="#FFFFFF" stroke-width="4.5" stroke-linejoin="round" fill="#FFFFFF" sketch:type="MSShapeGroup"></path>
            </g>
        </g>
    </g>
</svg>