<?xml version="1.0" encoding="UTF-8" standalone="no"?>
<svg width="304px" height="253px" viewBox="0 0 304 253" version="1.1" xmlns="http://www.w3.org/2000/svg" xmlns:xlink="http://www.w3.org/1999/xlink" xmlns:sketch="http://www.bohemiancoding.com/sketch/ns">
    <!-- Generator: Sketch 3.3.3 (12072) - http://www.bohemiancoding.com/sketch -->
    <title>Group</title>
    <desc>Created with Sketch.</desc>
    <defs></defs>
    <g id="Page-1" stroke="none" stroke-width="1" fill="none" fill-rule="evenodd" sketch:type="MSPage">
        <g id="Artboard-4" sketch:type="MSArtboardGroup" transform="translate(-442.000000, -270.000000)" stroke="#FFFFFF" stroke-width="3" stroke-linecap="round" stroke-linejoin="round">
            <g id="Group" sketch:type="MSLayerGroup" transform="translate(444.000000, 271.000000)">
                <path d="M0.75,140.5 L7.99406223,135.638213 L149.25,230.382321 L292.114784,135.409856 L299.75,140.5 L149.25,240.47363 L0.75,140.5 Z" id="Path-5" sketch:type="MSShapeGroup"></path>
                <path d="M0.25,120.5 L0.25,130.5 L149.25,230.5 L299.25,130.5 L299.25,120.5 L149.25,220.5 L0.25,120.5 Z" id="Path-3" sketch:type="MSShapeGroup"></path>
                <path d="M0.25,120.5 L7.72426471,115.483715 L149.25,210.493168 L292.203651,115.802434 L299.25,120.5 L149.25,220.5 L0.25,120.5 Z" id="Path-6" sketch:type="MSShapeGroup"></path>
                <path d="M0.25,140.5 L0.25,150.5 L149.25,250.5 L299.25,150.5 L299.25,140.5 L149.25,240.5 L0.25,140.5 Z M0.25,100.5 L0.25,110.5 L149.25,210.5 L299.25,110.5 L299.25,100.5 L149.25,200.5 L0.25,100.5 Z" id="Path-4" sketch:type="MSShapeGroup"></path>
                <path d="M0.25,100.5 L149.25,0.5 L299.25,100.5 L149.25,200.5 L0.25,100.5 Z" id="Path-1" sketch:type="MSShapeGroup"></path>
                <path d="M83.4846665,111.32 C83.4846665,112.940008 83.1696697,114.388994 82.5396665,115.667 C81.9096634,116.945006 81.0726718,118.024996 80.0286665,118.907 C78.9846613,119.789004 77.7516737,120.454998 76.3296665,120.905 C74.9076594,121.355002 73.4226743,121.58 71.8746665,121.58 C69.4986547,121.58 67.3296764,121.157004 65.3676665,120.311 C63.4056567,119.464996 61.776673,118.322007 60.4806665,116.882 L61.3986665,116.072 C62.7666734,117.548007 64.3596575,118.654996 66.1776665,119.393 C67.9956756,120.131004 69.8766568,120.5 71.8206665,120.5 C73.2246736,120.5 74.5566602,120.293002 75.8166665,119.879 C77.0766728,119.464998 78.1926617,118.871004 79.1646665,118.097 C80.1366714,117.322996 80.9016638,116.369006 81.4596665,115.235 C82.0176693,114.100994 82.2966665,112.796007 82.2966665,111.32 C82.2966665,109.843993 81.9906696,108.602005 81.3786665,107.594 C80.7666635,106.585995 79.9746714,105.722004 79.0026665,105.002 C78.0306617,104.281996 76.9236728,103.679002 75.6816665,103.193 C74.4396603,102.706998 73.1886728,102.266002 71.9286665,101.87 C70.3446586,101.365997 68.8956731,100.835003 67.5816665,100.277 C66.26766,99.7189972 65.1336713,99.035004 64.1796665,98.225 C63.2256618,97.4149959 62.4876692,96.4430057 61.9656665,95.309 C61.4436639,94.1749943 61.1826665,92.7980081 61.1826665,91.178 C61.1826665,89.5939921 61.4976634,88.1810062 62.1276665,86.939 C62.7576697,85.6969938 63.6126611,84.6530042 64.6926665,83.807 C65.7726719,82.9609958 67.0236594,82.3130023 68.4456665,81.863 C69.8676737,81.4129977 71.3706586,81.188 72.9546665,81.188 C74.8986763,81.188 76.7436578,81.5569963 78.4896665,82.295 C80.2356753,83.0330037 81.666661,84.0859932 82.7826665,85.454 L81.8646665,86.264 C80.8566615,85.0039937 79.5696744,84.0230035 78.0036665,83.321 C76.4376587,82.6189965 74.7366757,82.268 72.9006665,82.268 C71.6046601,82.268 70.3356728,82.4479982 69.0936665,82.808 C67.8516603,83.1680018 66.7266716,83.7169963 65.7186665,84.455 C64.7106615,85.1930037 63.9006696,86.1199944 63.2886665,87.236 C62.6766635,88.3520056 62.3706665,89.6659924 62.3706665,91.178 C62.3706665,92.6540074 62.6406638,93.9049949 63.1806665,94.931 C63.7206692,95.9570051 64.440662,96.8299964 65.3406665,97.55 C66.240671,98.2700036 67.2576609,98.8639977 68.3916665,99.332 C69.5256722,99.8000023 70.6866606,100.231998 71.8746665,100.628 C73.4946746,101.168003 75.0066595,101.716997 76.4106665,102.275 C77.8146736,102.833003 79.0476612,103.507996 80.1096665,104.3 C81.1716719,105.092004 81.9996636,106.054994 82.5936665,107.189 C83.1876695,108.323006 83.4846665,109.699992 83.4846665,111.32 L83.4846665,111.32 Z M105.807111,83.348 L105.807111,120.5 L104.619111,120.5 L104.619111,83.348 L91.605111,83.348 L91.605111,82.268 L118.821111,82.268 L118.821111,83.348 L105.807111,83.348 Z M154.373556,120.5 L149.837556,109.538 L127.643556,109.538 L122.945556,120.5 L121.649556,120.5 L138.227556,82.268 L139.739556,82.268 L155.669556,120.5 L154.373556,120.5 Z M138.929556,83.024 L128.075556,108.512 L149.459556,108.512 L138.929556,83.024 Z M167.678,83.348 L167.678,100.142 L186.848,100.142 L186.848,101.222 L167.678,101.222 L167.678,120.5 L166.49,120.5 L166.49,82.268 L188.306,82.268 L188.306,83.348 L167.678,83.348 Z M200.854444,120.5 L200.854444,82.268 L202.042444,82.268 L202.042444,119.42 L221.050444,119.42 L221.050444,120.5 L200.854444,120.5 Z M231.870889,120.5 L231.870889,82.268 L233.058889,82.268 L233.058889,120.5 L231.870889,120.5 Z" id="STAFLI" fill="#FFFFFF" sketch:type="MSShapeGroup"></path>
            </g>
        </g>
    </g>
</svg>